HIERARCHY
ROOT HipCenter
{
    OFFSET 0.0 0.0 -0.0
    CHANNELS 6 Xposition Yposition Zposition Zrotation Xrotation Yrotation
    JOINT Spine
    {
        OFFSET 0.0 30.444869995117188 0.0
        CHANNELS 3 Zrotation Xrotation Yrotation
        JOINT ShoulderCenter
        {
            OFFSET 0.0 22.355236053466797 0.0
            CHANNELS 3 Zrotation Xrotation Yrotation
            JOINT LeftShoulder
            {
                OFFSET 15.61764907836914 0.0 0.0
                CHANNELS 3 Zrotation Xrotation Yrotation
                JOINT LeftElbow
                {
                    OFFSET 21.861719131469727 0.0 0.0
                    CHANNELS 3 Zrotation Xrotation Yrotation
                    JOINT LeftWrist
                    {
                        OFFSET 19.42044448852539 0.0 0.0
                        CHANNELS 3 Zrotation Xrotation Yrotation
                        JOINT LeftHand
                        {
                            OFFSET 5.216500282287598 0.0 0.0
                            CHANNELS 3 Zrotation Xrotation Yrotation
                            End Site
                            {
                                OFFSET 2.086599826812744 0.0 0.0
                            }
                        }
                    }
                }
            }
            JOINT RightShoulder
            {
                OFFSET -15.61764907836914 0.0 0.0
                CHANNELS 3 Zrotation Xrotation Yrotation
                JOINT RightElbow
                {
                    OFFSET -21.861719131469727 0.0 0.0
                    CHANNELS 3 Zrotation Xrotation Yrotation
                    JOINT RightWrist
                    {
                        OFFSET -19.42044448852539 0.0 0.0
                        CHANNELS 3 Zrotation Xrotation Yrotation
                        JOINT RightHand
                        {
                            OFFSET -5.216500282287598 0.0 0.0
                            CHANNELS 3 Zrotation Xrotation Yrotation
                            End Site
                            {
                                OFFSET -2.086599826812744 0.0 0.0
                            }
                        }
                    }
                }
            }
            End Site
            {
                OFFSET 0.0 8.942093849182129 0.0
            }
        }
    }
    JOINT LeftHip
    {
        OFFSET 8.146317481994629 0.0 0.0
        CHANNELS 3 Zrotation Xrotation Yrotation
        JOINT LeftKnee
        {
            OFFSET 0.0 -29.595874786376953 0.0
            CHANNELS 3 Zrotation Xrotation Yrotation
            JOINT LeftAnkle
            {
                OFFSET 0.0 -30.349882125854492 0.0
                CHANNELS 3 Zrotation Xrotation Yrotation
                JOINT LeftFoot
                {
                    OFFSET 0.0 -11.187576293945312 0.0
                    CHANNELS 3 Zrotation Xrotation Yrotation
                    End Site
                    {
                        OFFSET 0.0 0.0 4.475029945373535
                    }
                }
            }
        }
    }
    JOINT RightHip
    {
        OFFSET -8.146317481994629 0.0 0.0
        CHANNELS 3 Zrotation Xrotation Yrotation
        JOINT RightKnee
        {
            OFFSET 0.0 -29.595874786376953 0.0
            CHANNELS 3 Zrotation Xrotation Yrotation
            JOINT RightAnkle
            {
                OFFSET 0.0 -30.349882125854492 0.0
                CHANNELS 3 Zrotation Xrotation Yrotation
                JOINT RightFoot
                {
                    OFFSET 0.0 -11.187576293945312 0.0
                    CHANNELS 3 Zrotation Xrotation Yrotation
                    End Site
                    {
                        OFFSET 0.0 0.0 4.475029945373535
                    }
                }
            }
        }
    }
}
MOTION
Frames: 5
Frame Time: 0.03333333333333333
-2.7351999282836914 -13.141800880432129 -258.5799865722656 0.10903827547674673 1.6074310997854329 175.84162453112177 0.09071423190775647 -1.7820647667057363 0.011431458854282647 -1.0191446916263865e-08 1.573295737968238e-07 1.8380343643973553 -75.31063877931182 -40.28812097159055 8.515854156987043 3.135307500465393e-06 -1.9534371886893053e-06 16.108292108876928 179.99999136961048 -61.84617225178423 -156.20210060683928 0.0 0.0 1.590277340731758e-15 75.74287237126796 -23.56299105522796 -1.9824524356775919 -3.2624747812847695e-06 -9.622304842344042e-07 -13.329005155450192 179.9999973968172 -8.106770810137366 135.71457089679035 0.0 0.0 -3.1805546814635168e-15 5.807024545068327 -10.73832849607879 27.905307929224666 1.1794716846163988 8.402315092614378 0.08146263345839569 35.235016114621835 45.30874397365392 -26.19500430351226 -4.4139062980501586e-32 -6.3611093629270335e-15 -7.951386703658792e-16 -3.388674598895853 -12.033890786766833 -25.46613116167397 -3.6911302894470994 9.260415858953932 -0.11087667370844288 -37.519740477588904 33.46525370150601 22.446486021271607 1.5902773407317584e-15 -6.3611093629270335e-15 8.827812596100317e-32
-2.7380998134613037 -13.150199890136719 -258.5746154785156 0.11610052757988401 1.6074863485817263 175.77026385587342 0.09321411482615329 -1.7862662967236766 0.010576266865989727 1.5426260414365698e-08 -1.0717050320898027e-07 1.6582222046917927 -75.41963809580467 -40.10029938937288 8.542868051325316 -2.9446907400223793e-06 5.830200761534067e-06 16.016741876120534 -179.99999572553187 -73.0067226828024 -159.3880830792332 0.0 1.5902773407317584e-15 0.0 75.7527748900884 -23.145422233566038 -2.062455269431418 -3.4541247001612928e-06 -1.5331475096977665e-06 -12.379371680632945 -179.99999889751606 4.8501103813990145 139.99496929850824 -6.3611093629270335e-15 -6.3611093629270335e-15 -3.9756933518293994e-16 5.8150032785972146 -10.716345318067745 27.92422694338589 1.1693288766352747 8.364167297256724 0.08330273194975006 35.37582028303831 45.364021379479006 -26.323227639214547 0.0 0.0 -7.951386703658792e-16 -3.4066780425601766 -11.937407283242582 -25.472921894283893 -3.5183426069062276 9.157753426298749 -0.12168177104268342 -37.77371394816662 33.33660341133411 22.50938134658725 0.0 0.0 -7.951386703658791e-16
-2.7472000122070312 -13.160499572753906 -258.57470703125 0.11218021652783051 1.6121206174252438 175.64153116976323 0.09801518402898739 -1.7878163251658459 0.01031695555969832 -4.909909773572245e-09 -5.869903813858769e-08 1.6643768351311299 -75.72581201979953 -39.26775603965345 8.271692711439462 3.7811713219650235e-07 5.62002740299329e-07 16.253111559999674 -179.9999971339819 -62.69231991515983 -154.3566076248109 -2.2069531490250793e-32 -7.95138670365879e-16 -3.180554681463516e-15 75.77332615291664 -18.629619365309615 -2.196055686694378 -1.0270163581218988e-06 6.104911878397972e-06 -10.652790739509845 -179.99999479079847 5.156257862269694 140.85788137629595 0.0 0.0 2.3854160110976376e-15 5.802590639140568 -10.656692913194213 27.9205744956165 1.1500601290596892 8.286138925048183 0.08123484742046251 35.37448650351844 45.683955273557174 -26.454623215696294 0.0 0.0 7.951386703658792e-16 -3.455996969503623 -11.845337928223564 -25.460169628758017 -3.196525435055885 8.929890827878888 -0.1492984500430057 -37.88098985749506 32.84671292731931 22.180640881321093 7.951386703658792e-16 5.517382872562698e-33 7.951386703658792e-16
-2.793299913406372 -13.176700592041016 -258.63250732421875 0.12096347612996643 1.6366525435405417 175.7051605565711 0.10222667395941605 -1.7913870442684288 0.011196720067755666 1.3690966106737961e-08 1.3626961524245846e-07 1.4684364581448988 -76.46809641160212 -37.256505468101764 7.950313032966326 -2.246501104409216e-07 1.0930899752698712e-08 16.122741820155916 -179.9999994431179 -59.180872277424974 -151.6195125263668 0.0 0.0 0.0 75.50322942794288 -13.168887169029613 -2.5683693922392674 5.816839122117787e-06 3.432397092674958e-07 -9.924482601474406 179.99999489521298 14.858756828775704 142.3277166130594 0.0 0.0 -1.5902773407317584e-15 5.677796583788035 -10.699288543953871 27.86645632878235 1.3600792821187278 8.372026100203405 0.06835889388631951 35.21021075884343 45.65273373734293 -26.38207980952911 0.0 0.0 -7.951386703658792e-16 -3.554263810658362 -11.794704469872793 -25.461461488620564 -3.042454688285179 8.952827837967115 -0.16190438076633223 -38.04333599662456 33.065746573608294 22.361047654756113 -3.1805546814635168e-15 6.3611093629270335e-15 -1.5902773407317582e-15
-2.819399833679199 -13.19260025024414 -258.659912109375 0.1139222848590073 1.6757990619545644 175.65076732326568 0.09510273544840282 -1.7959599536830113 0.01146833824045179 -7.486486261171591e-10 7.709570008565879e-08 1.4635916722883378 -76.47490236809993 -37.47368338712804 7.964417347672637 1.7306688355850265e-06 -5.1284080402327065e-06 16.09231367831921 -179.9999957303147 -65.0648374508516 -153.3197074186282 0.0 0.0 -3.180554681463516e-15 74.43711637920741 -11.236275096344526 -4.048653815455119 -2.179333646529247e-06 3.345609074284813e-06 -9.292888862888628 -179.9999941780838 25.058898462142096 147.72440987842268 0.0 0.0 0.0 5.624250896382491 -10.60896999147119 27.82975253529587 1.3600047550957393 8.323667361841618 0.069067183218331 35.222952000725314 45.36954271197508 -26.275890878187745 1.5902773407317588e-15 -2.2069531490250793e-32 -1.5902773407317588e-15 -3.543573683198353 -11.734810940993345 -25.410470529272292 -3.096056080041378 8.914587141336964 -0.1538763944889443 -37.92023130841082 32.97288101009907 22.254997114752435 0.0 0.0 -1.5902773407317588e-15
